{"title":"Bob's Burgers 307 720p XBOX360/PS3 READY","uid":7937415,"size":350382978,"categoryP":"video","categoryS":"hd___tv_shows","magnet":"?xt=urn:btih:7e1a10f6ffe97855086fd89e26e4b6e3d70ee559&amp;dn=Bob%27s+Burgers+307+720p+XBOX360%2FPS3+READY&amp;tr=udp%3A%2F%2Ftracker.openbittorrent.com%3A80&amp;tr=udp%3A%2F%2Fopen.demonii.com%3A1337&amp;tr=udp%3A%2F%2Ftracker.coppersurfer.tk%3A6969&amp;tr=udp%3A%2F%2Fexodus.desync.com%3A6969","seeders":1,"leechers":0,"uploader":"Danimal1q2w3","files":1,"time":1355897158,"description":"307\n\nseed\n\nVideo\nID                                       : 0\nFormat                                   : MPEG-4 Visual\nFormat profile                           : Simple@L3\nFormat settings, BVOP                    : No\nFormat settings, QPel                    : No\nFormat settings, GMC                     : No warppoints\nFormat settings, Matrix                  : Default (H.263)\nCodec ID                                 : XVID\nCodec ID/Hint                            : XviD\nDuration                                 : 21mn 32s\nSource duration                          : 21mn 32s\nBit rate                                 : 1 844 Kbps\nWidth                                    : 1 280 pixels\nHeight                                   : 720 pixels\nDisplay aspect ratio                     : 16:9\nFrame rate                               : 24.000 fps\nColor space                              : YUV\nChroma subsampling                       : 4:2:0\nBit depth                                : 8 bits\nScan type                                : Progressive\nCompression mode                         : Lossy\nBits/(Pixel*Frame)                       : 0.083\nStream size                              : 284 MiB (85%)\nWriting library                          : XviD 63\n\nAudio\nID                                       : 1\nFormat                                   : MPEG Audio\nFormat version                           : Version 1\nFormat profile                           : Layer 3\nMode                                     : Joint stereo\nCodec ID                                 : 55\nCodec ID/Hint                            : MP3\nDuration                                 : 21mn 32s\nBit rate mode                            : Variable\nBit rate                                 : 313 Kbps\nChannel(s)                               : 2 channels\nSampling rate                            : 48.0 KHz\nCompression mode                         : Lossy\nStream size                              : 48.2 MiB (14%)\nAlignment                                : Aligned on interleaves\nInterleave, duration                     : 24 ms (0.58 video frame)\nInterleave, preload duration             : 510 ms\n\n","torrent":{"xt":"urn:btih:7e1a10f6ffe97855086fd89e26e4b6e3d70ee559","amp;dn":"Bob%27s+Burgers+307+720p+XBOX360%2FPS3+READY","amp;tr":["udp%3A%2F%2Ftracker.openbittorrent.com%3A80","udp%3A%2F%2Fopen.demonii.com%3A1337","udp%3A%2F%2Ftracker.coppersurfer.tk%3A6969","udp%3A%2F%2Fexodus.desync.com%3A6969"],"infoHash":"7e1a10f6ffe97855086fd89e26e4b6e3d70ee559","infoHashBuffer":{"type":"Buffer","data":[126,26,16,246,255,233,120,85,8,111,216,158,38,228,182,227,215,14,229,89]},"announce":[],"urlList":[]}}